<?xml version="1.0" standalone="no"?>
<!DOCTYPE svg PUBLIC "-//W3C//DTD SVG 20010904//EN"
 "http://www.w3.org/TR/2001/REC-SVG-20010904/DTD/svg10.dtd">
<svg version="1.0" xmlns="http://www.w3.org/2000/svg"
 width="5000.000000pt" height="5000.000000pt" viewBox="0 0 5000.000000 5000.000000"
 preserveAspectRatio="xMidYMid meet">
<metadata>
Created by potrace 1.14, written by Peter Selinger 2001-2017
</metadata>
<g transform="translate(0.000000,5000.000000) scale(0.100000,-0.100000)"
fill="#000000" stroke="none">
<path d="M4282 46109 c-568 -18 -1215 -59 -2192 -140 -935 -77 -1680 -189
-1885 -283 -85 -38 -74 -70 60 -171 276 -207 685 -423 1772 -935 331 -156 601
-285 600 -287 -2 -1 -246 -12 -543 -23 -676 -25 -924 -36 -1189 -55 -528 -38
-796 -97 -879 -195 -84 -101 42 -231 439 -452 414 -231 616 -381 1230 -912
648 -561 908 -764 1359 -1061 359 -236 633 -393 1076 -614 588 -293 1121 -512
1968 -806 1056 -366 1752 -664 1752 -751 0 -7 -7 -32 -16 -55 -74 -183 -507
-202 -1361 -59 -220 37 -396 72 -1363 269 -499 102 -725 134 -792 112 -41 -14
-78 -71 -78 -122 0 -67 55 -157 154 -254 151 -148 366 -290 722 -478 605 -319
1184 -727 1587 -1117 258 -250 350 -403 287 -482 -53 -68 -150 -64 -368 15
-473 174 -868 237 -1032 166 -59 -25 -80 -54 -80 -109 0 -61 33 -116 129 -210
146 -145 388 -294 746 -462 545 -256 987 -538 1765 -1127 935 -708 1054 -788
1305 -881 169 -63 256 -120 301 -196 65 -110 5 -200 -156 -238 -36 -9 -94 -16
-130 -16 -181 -1 -329 -37 -375 -91 -85 -102 38 -245 341 -397 139 -70 246
-134 467 -278 1122 -736 3620 -2623 4059 -3066 59 -59 79 -86 84 -114 6 -33 3
-40 -20 -61 -72 -62 -348 -2 -887 192 l-151 55 -45 -20 c-85 -37 -242 -221
-391 -456 -115 -180 -216 -363 -382 -684 -487 -945 -1129 -2001 -1774 -2915
-522 -741 -837 -1087 -1076 -1186 -83 -34 -222 -33 -308 3 -268 111 -527 374
-1237 1253 -350 434 -404 496 -584 676 -206 205 -332 293 -501 347 -129 41
-178 47 -415 46 -199 0 -242 -3 -322 -21 -210 -49 -370 -137 -614 -334 -142
-115 -707 -678 -861 -859 -432 -507 -774 -1023 -1063 -1602 -444 -892 -655
-1720 -655 -2567 0 -213 10 -317 45 -448 90 -341 360 -590 880 -811 554 -235
1174 -418 3185 -936 2261 -582 3969 -1048 4517 -1232 1015 -340 2596 -1127
4218 -2099 1962 -1176 3612 -2382 4320 -3158 214 -235 594 -609 755 -743 556
-464 1082 -751 1615 -879 197 -48 334 -65 605 -75 243 -9 344 -23 443 -60 372
-140 214 -542 -552 -1403 -230 -259 -410 -446 -1036 -1077 -341 -344 -703
-713 -805 -820 -911 -959 -1361 -1575 -1533 -2098 -57 -172 -77 -290 -77 -455
0 -409 183 -751 652 -1214 264 -260 343 -323 509 -402 308 -147 699 -189 2294
-246 226 -8 527 -19 670 -25 818 -32 3674 -49 5030 -31 2506 33 3509 85 4120
212 658 136 929 358 1260 1034 150 305 197 474 198 705 1 323 -119 641 -404
1067 -314 470 -697 921 -1699 2008 -816 885 -1195 1311 -1616 1815 -958 1148
-1435 1919 -1437 2320 -1 70 4 98 27 155 83 213 275 457 549 697 337 296 431
415 473 607 22 97 15 252 -20 456 -60 354 -54 566 18 634 68 64 163 -41 244
-271 70 -198 140 -516 342 -1548 151 -772 259 -1240 396 -1717 112 -391 174
-672 192 -885 10 -111 42 -189 135 -331 123 -188 257 -345 542 -637 404 -413
653 -728 1335 -1695 445 -630 598 -832 740 -976 162 -165 254 -182 293 -54 17
57 13 323 -7 475 -63 471 -128 786 -600 2895 -47 209 -139 639 -206 955 -329
1566 -384 1762 -1394 5000 l-308 986 487 679 c1292 1802 1783 2520 2305 3365
1151 1865 1926 3659 2684 6215 83 282 163 563 456 1615 131 470 403 1442 603
2160 1006 3594 1255 4542 1377 5240 56 321 118 537 211 728 61 126 136 212
186 212 77 0 326 -81 628 -205 455 -186 904 -398 1850 -874 1184 -595 1657
-807 2135 -954 325 -101 525 -131 800 -124 279 8 495 46 770 137 455 149 875
392 1330 769 152 126 549 523 687 687 648 772 1142 1663 1487 2682 309 914
401 1630 291 2278 -168 990 -775 1774 -1977 2552 -842 544 -1366 741 -2202
828 -206 21 -896 30 -1226 15 -1097 -50 -2368 -194 -5630 -640 -697 -95 -881
-114 -1390 -141 -787 -42 -1588 -53 -3175 -47 -1303 6 -1646 10 -2665 37
-2505 65 -4694 190 -5890 335 -271 33 -771 111 -1620 251 -1312 217 -1584 255
-2145 306 -189 17 -765 17 -920 0 -949 -105 -1638 -480 -2517 -1368 -565 -572
-1023 -1134 -1773 -2179 -481 -670 -603 -821 -725 -903 -46 -30 -63 -36 -106
-36 -96 2 -131 28 -589 450 -1135 1044 -2508 2230 -4337 3747 -322 267 -361
296 -400 301 -24 3 -160 10 -303 16 -143 5 -672 28 -1175 50 -3118 136 -3981
158 -4908 129z m948 -639 c1483 -30 2359 -93 2789 -200 423 -107 806 -327
1485 -855 521 -405 1484 -1206 2031 -1689 2483 -2192 6982 -6627 7326 -7221
49 -85 33 -126 -55 -146 -172 -38 -597 100 -1188 387 -141 69 -303 142 -360
164 -56 22 -97 40 -90 40 35 0 392 -129 607 -220 493 -210 737 -290 882 -290
109 0 144 64 81 151 -223 311 -1474 1587 -3453 3519 -1143 1117 -2780 2662
-3625 3420 -720 647 -1747 1506 -2255 1887 -581 435 -982 657 -1405 777 -570
162 -1282 201 -3680 201 -1735 0 -2118 -15 -2144 -82 -24 -62 136 -174 544
-377 584 -290 1038 -442 2490 -832 1239 -333 1733 -490 2000 -637 97 -53 185
-138 199 -193 20 -74 -14 -144 -87 -177 -42 -20 -63 -22 -197 -21 -210 1 -432
34 -1060 154 -409 79 -557 104 -810 139 -1152 162 -2641 238 -3058 156 -67
-13 -266 -84 -270 -97 -1 -3 48 -68 110 -146 73 -92 143 -167 203 -219 507
-431 1641 -1164 2355 -1521 710 -354 1613 -715 2470 -985 906 -286 1711 -496
3450 -902 1374 -320 1918 -490 2095 -655 l55 -51 -65 44 c-167 114 -399 203
-855 326 -220 59 -500 125 -1250 291 -1108 246 -1710 391 -2313 556 -1779 486
-3214 1056 -4387 1742 -792 463 -1531 1008 -1778 1310 -111 136 -134 218 -76
273 54 50 219 92 479 121 177 20 1020 16 1325 -5 840 -60 1307 -128 2280 -332
702 -146 1116 -201 1250 -164 21 6 54 26 72 44 28 28 33 40 33 81 0 43 -4 51
-44 89 -187 180 -1185 517 -2306 779 -157 37 -376 89 -487 117 -909 224 -2177
748 -2468 1021 -106 98 -99 119 46 148 350 71 1746 107 3109 80z m16655 -135
c379 -31 705 -81 1358 -210 494 -98 905 -172 1357 -244 4864 -776 11493 -825
16300 -121 184 27 452 68 595 90 646 101 1069 155 1433 180 168 12 250 6 260
-18 3 -9 -9 -43 -26 -76 -63 -120 -209 -285 -562 -636 -191 -190 -402 -402
-468 -473 -1387 -1462 -2253 -3077 -2781 -5182 -22 -88 -81 -331 -131 -540
-600 -2498 -1141 -4597 -1710 -6635 -346 -1238 -1081 -3780 -1211 -4185 -404
-1260 -960 -2617 -1595 -3895 -465 -935 -789 -1486 -1212 -2057 -236 -320
-459 -632 -795 -1113 -624 -893 -783 -1102 -969 -1275 -105 -97 -175 -138
-249 -143 -49 -4 -65 0 -101 21 -79 46 -119 116 -208 367 -130 363 -259 682
-520 1280 -236 541 -313 728 -375 915 -118 352 -113 542 14 613 36 20 81 28
315 53 427 45 508 64 514 121 3 22 -11 42 -72 106 -98 102 -156 134 -256 140
-105 6 -174 -14 -380 -113 -331 -158 -490 -182 -540 -85 -25 49 -27 163 -4
241 44 146 155 294 241 320 37 11 48 10 92 -10 116 -49 264 0 290 96 30 108
-91 158 -424 173 -133 7 -213 15 -268 29 -211 55 -337 165 -337 296 0 129 108
224 325 286 164 46 132 59 -135 51 -268 -7 -422 21 -541 100 -58 39 -84 77
-103 154 -22 86 -20 140 8 199 55 120 180 170 462 184 132 7 159 12 208 34 45
21 60 34 71 62 13 30 13 40 1 69 -50 119 -271 161 -548 103 -148 -31 -291 -36
-383 -12 -171 45 -253 155 -174 234 42 42 110 60 274 71 238 15 355 74 355
176 0 30 -7 44 -39 75 -79 74 -213 106 -506 119 -229 10 -313 27 -428 87 -85
45 -190 145 -258 248 -141 211 -381 736 -383 834 l-1 44 95 64 c52 35 187 117
300 183 235 137 273 164 250 180 -20 14 -132 7 -330 -20 -248 -35 -367 -19
-496 66 -157 104 -323 321 -661 864 -632 1016 -772 1366 -589 1479 48 30 154
51 261 51 150 1 267 33 301 85 14 22 14 27 -1 59 -47 99 -292 133 -652 92
-423 -50 -541 46 -951 769 -72 127 -184 327 -250 445 l-121 215 317 6 c335 7
419 17 487 59 18 11 38 34 45 50 11 26 9 36 -11 77 -29 58 -83 97 -164 118
-87 23 -301 21 -530 -6 -246 -28 -418 -30 -462 -6 -20 11 -35 28 -39 45 -36
163 -135 305 -762 1095 -178 225 -381 483 -449 575 -306 405 -406 608 -322
653 34 18 163 11 319 -17 384 -68 482 -34 431 148 -31 112 -149 186 -337 215
-95 14 -132 14 -284 4 -245 -17 -365 1 -509 74 -182 91 -336 244 -651 645
-320 408 -387 538 -331 648 28 55 72 96 231 217 153 116 205 167 197 189 -10
25 -74 35 -278 45 -179 8 -201 11 -289 40 -263 89 -545 284 -845 586 -350 352
-491 545 -502 687 -7 87 19 151 108 263 82 103 127 189 112 214 -23 39 -79 53
-246 61 -180 9 -222 20 -362 91 -291 149 -712 493 -1355 1111 -262 251 -1888
1887 -1904 1916 -6 9 -4 23 4 35 16 26 722 1008 1009 1402 793 1093 1253 1660
1702 2100 651 637 1243 928 2009 988 128 10 564 5 725 -8z m-11800 -137 c1476
-482 7417 -6072 10890 -10248 2861 -3441 6312 -8880 8295 -13075 305 -645 467
-1018 760 -1740 264 -653 426 -1023 532 -1217 64 -118 76 -146 155 -358 331
-893 1168 -3596 1534 -4955 146 -542 557 -2217 678 -2765 70 -316 84 -404 72
-443 -6 -18 -13 -45 -16 -61 -3 -16 -19 -41 -35 -57 -41 -42 -98 -40 -186 6
-170 89 -368 299 -569 605 -290 439 -513 965 -654 1542 -195 793 -250 1013
-331 1323 -777 2971 -1742 5808 -2693 7910 -790 1750 -3043 5686 -4641 8110
-1442 2189 -3045 4292 -4820 6325 -1912 2190 -4002 4268 -6416 6380 -427 373
-591 515 -1260 1090 -757 650 -1027 889 -1249 1105 -313 305 -415 473 -324
532 57 38 144 35 278 -9z m35735 -89 c356 -40 821 -196 1240 -416 601 -316
1127 -727 1599 -1248 464 -511 592 -739 647 -1145 24 -176 24 -673 1 -895 -53
-491 -147 -967 -257 -1295 -263 -786 -1028 -1909 -1879 -2760 -238 -238 -363
-343 -411 -346 -16 -1 -62 -22 -102 -48 -185 -115 -467 -226 -708 -280 -196
-43 -317 -57 -537 -63 -506 -14 -948 73 -1468 287 -666 275 -1496 717 -1692
903 l-53 50 0 63 c0 333 530 1539 739 1681 56 38 310 10 687 -78 242 -56 451
-113 864 -233 683 -201 778 -221 1025 -220 167 0 187 2 270 28 311 95 742 319
990 516 266 211 509 509 654 804 138 280 201 544 201 839 0 343 -103 651 -311
930 -240 321 -492 483 -878 563 -211 43 -299 49 -761 48 -543 -1 -751 -13
-1592 -94 -1033 -98 -1821 -140 -2058 -110 -112 15 -122 39 -66 155 152 315
895 1047 1606 1584 498 376 861 555 1422 701 348 90 553 109 828 79z m10
-2959 c596 -25 766 -100 919 -407 165 -330 197 -659 94 -963 -157 -467 -691
-933 -1173 -1024 -248 -47 -423 15 -495 176 -23 50 -29 82 -33 158 -6 129 15
232 94 464 93 274 112 389 80 479 -49 136 -167 180 -533 196 -129 6 -231 16
-268 26 -304 81 -403 286 -258 534 98 166 237 245 538 306 276 55 610 73 1035
55z m-2655 -323 c98 -25 114 -65 74 -193 -45 -146 -161 -349 -337 -591 -331
-453 -545 -821 -941 -1613 -287 -575 -334 -657 -448 -781 -181 -195 -354 -207
-763 -54 -149 55 -219 91 -297 149 -72 55 -142 152 -175 246 -21 58 -23 82
-22 235 0 149 4 185 28 290 74 319 228 699 523 1290 217 434 310 584 437 710
168 167 344 222 921 290 321 37 433 44 700 40 170 -2 257 -8 300 -18z m870
-1042 c271 -79 455 -242 455 -403 0 -151 -151 -264 -354 -263 -193 1 -378 82
-528 231 -207 206 -179 394 67 457 79 20 251 10 360 -22z m-33750 -1955 c313
-16 1330 -104 1555 -134 19 -2 -75 -2 -210 0 -1489 25 -3602 27 -4230 4 -681
-25 -1008 -69 -1034 -137 -47 -121 1173 -930 2199 -1459 391 -201 562 -266
1145 -432 425 -122 860 -239 1402 -377 1040 -266 1392 -361 1808 -485 1165
-348 1479 -572 1246 -887 -78 -107 -188 -143 -371 -123 -188 20 -384 72 -980
259 -889 279 -1918 551 -3005 796 -323 73 -878 182 -1070 209 -174 26 -354 34
-364 17 -26 -42 401 -342 1089 -766 1308 -805 2130 -1191 3115 -1460 641 -176
1174 -277 2570 -491 2219 -339 4213 -917 4895 -1420 183 -135 274 -291 198
-341 -22 -15 -48 -18 -148 -17 -244 1 -498 50 -1525 294 -1516 360 -2261 501
-4665 885 -633 101 -1694 275 -1980 326 -229 40 -485 100 -485 114 0 49 85 46
257 -9 261 -84 660 -155 1928 -346 2671 -402 4016 -660 5422 -1039 768 -207
1203 -242 1167 -95 -22 87 -281 264 -633 432 -874 415 -2163 800 -3471 1036
-391 71 -690 114 -1232 181 -1790 219 -2789 484 -3943 1046 -376 183 -772 406
-1324 747 -1081 667 -1331 835 -1331 895 0 10 18 37 39 60 l40 42 103 -2 c568
-8 3573 -744 4698 -1150 395 -142 533 -177 700 -177 132 1 197 23 264 91 81
82 106 175 72 258 -49 117 -254 253 -571 378 -423 167 -895 297 -2310 637
-1905 458 -2382 614 -3105 1018 -928 518 -1950 1242 -1950 1383 0 24 59 54
145 74 185 43 421 60 1040 75 441 11 728 25 1245 60 162 12 360 24 440 29 212
12 935 12 1155 1z m6418 -2817 c-7 -2 -19 -2 -25 0 -7 3 -2 5 12 5 14 0 19 -2
13 -5z m-87 -23 c-150 -59 -197 -229 -105 -376 l31 -49 -37 35 c-57 54 -79
104 -80 180 0 112 46 178 154 216 20 7 47 13 61 13 18 0 12 -5 -24 -19z m245
-536 c201 -50 512 -182 979 -415 1056 -528 2181 -1218 2610 -1601 249 -223
536 -558 610 -712 38 -80 41 -147 8 -170 -48 -34 -119 -19 -362 75 -490 191
-785 261 -869 206 -137 -89 284 -466 1063 -952 437 -272 892 -656 1506 -1270
778 -777 1239 -1362 1297 -1646 29 -140 265 -536 830 -1394 426 -647 495 -759
632 -1020 215 -413 398 -734 935 -1645 561 -950 758 -1323 994 -1877 95 -222
151 -318 302 -519 139 -186 217 -308 299 -469 80 -158 98 -215 86 -278 -23
-125 -165 -185 -461 -194 -409 -14 -990 87 -1627 281 -705 215 -1234 468
-1768 844 -493 347 -856 676 -1648 1490 -877 901 -1187 1195 -1618 1534 -582
458 -1086 753 -1789 1048 -627 263 -1374 666 -2178 1172 -789 497 -1403 974
-1503 1170 -29 58 -21 190 14 225 28 28 275 -17 1229 -227 1365 -301 1981
-413 2583 -471 167 -17 548 -17 641 -1 167 28 272 79 313 152 20 36 23 52 19
120 -3 70 -6 82 -34 117 -50 62 -173 117 -376 168 -285 70 -690 140 -1836 315
-823 126 -1243 224 -1742 407 -693 253 -1243 581 -2085 1244 -116 91 -316 248
-445 350 -472 372 -709 546 -1115 822 -287 195 -432 302 -560 413 -184 159
-334 335 -351 409 -6 30 -6 30 13 10 11 -11 60 -64 108 -118 148 -166 352
-331 925 -747 206 -150 593 -436 859 -634 266 -199 595 -444 730 -544 1078
-804 1622 -1089 2525 -1322 389 -101 739 -170 1556 -310 953 -163 1565 -286
1684 -339 122 -54 205 -219 167 -334 -28 -84 -154 -166 -306 -200 -182 -41
-471 -46 -742 -12 -582 73 -2899 508 -3485 656 -64 16 -133 29 -152 29 -52 0
-76 -28 -76 -88 0 -42 7 -58 49 -118 299 -425 1995 -1500 3561 -2258 805 -390
1098 -552 1452 -804 415 -294 790 -628 1733 -1537 1011 -976 1735 -1617 2088
-1848 716 -471 1787 -862 2722 -994 186 -26 591 -26 685 0 126 35 190 92 190
168 0 62 -114 275 -278 522 -151 226 -286 463 -443 781 -230 464 -340 671
-661 1249 -614 1104 -1393 2433 -1955 3332 -414 663 -612 1004 -762 1310 -246
502 -886 1244 -1731 2008 -393 355 -732 625 -1136 903 -473 326 -676 485 -845
661 -147 153 -181 242 -118 305 l30 31 97 -6 c117 -7 202 -30 557 -147 377
-124 509 -157 525 -129 5 7 1 32 -9 59 -72 190 -479 638 -791 872 -774 579
-2369 1465 -3200 1776 -166 62 -266 104 -305 126 -30 17 -30 17 35 10 36 -3
90 -12 121 -20z m-3468 -5860 c543 -349 1059 -735 1722 -1287 427 -357 593
-515 641 -614 50 -101 15 -141 -189 -223 -250 -101 -394 -189 -385 -237 5 -27
62 -50 168 -69 116 -20 262 -15 465 17 181 28 435 31 574 5 135 -25 268 -69
406 -136 113 -54 247 -140 668 -429 170 -117 358 -224 502 -287 214 -93 208
-142 -36 -321 -99 -73 -139 -116 -139 -151 0 -29 61 -75 147 -112 126 -53 184
-63 313 -57 137 6 205 27 302 93 37 25 90 54 118 65 332 126 1001 -210 1883
-946 417 -348 730 -640 1392 -1301 614 -613 901 -877 1290 -1189 638 -511
1176 -813 1845 -1035 525 -174 1039 -276 1850 -365 689 -76 1250 -194 1376
-290 116 -88 342 -695 980 -2620 287 -869 422 -1264 469 -1382 22 -52 16 -86
-30 -181 -40 -83 -92 -167 -208 -332 -202 -288 -334 -412 -505 -476 -269 -102
-549 -116 -2123 -112 l-1127 3 252 371 c138 205 293 429 345 499 178 241 335
381 478 425 72 22 234 43 280 35 15 -2 105 -9 198 -16 188 -12 301 -3 365 30
29 15 36 24 38 55 10 119 -212 245 -468 265 -123 10 -167 28 -224 92 -99 109
-158 329 -221 824 -80 623 -189 1008 -398 1405 -135 257 -148 285 -154 327
-13 94 35 156 235 306 73 54 131 104 129 111 -2 6 -21 20 -43 31 -33 17 -69
21 -239 27 -446 15 -707 84 -1136 299 -435 217 -668 292 -1165 374 -381 63
-465 84 -789 203 -62 23 -85 26 -205 27 -211 0 -353 -36 -579 -150 -369 -185
-493 -180 -917 34 -88 44 -195 92 -239 107 -71 23 -90 26 -165 21 -138 -10
-150 -16 -295 -138 -71 -60 -189 -119 -300 -151 -67 -19 -104 -23 -230 -23
-136 0 -155 2 -201 23 -77 35 -104 68 -120 149 -12 57 -20 74 -53 105 -94 89
-325 104 -407 27 -28 -26 -32 -79 -9 -119 22 -39 18 -66 -16 -94 -234 -197
-2109 -99 -3349 176 -451 99 -1062 300 -1473 482 -214 95 -328 161 -477 276
-123 95 -355 194 -553 234 -43 9 -140 20 -217 26 -273 18 -539 113 -1039 371
-490 253 -1509 860 -2171 1294 -278 182 -440 339 -440 428 0 80 384 639 1049
1527 368 491 526 711 756 1055 475 711 785 1251 1263 2202 158 315 288 573
290 573 1 0 112 -70 245 -156z m-7142 -2666 c127 -43 273 -188 820 -817 744
-857 1281 -1408 1924 -1971 1583 -1387 3380 -2419 5475 -3143 740 -256 1155
-361 1795 -456 656 -98 1249 -147 2665 -221 1050 -55 1326 -75 1642 -121 349
-50 515 -128 492 -231 -10 -47 -112 -143 -217 -203 -282 -162 -452 -326 -664
-640 -322 -478 -634 -1220 -792 -1886 -87 -365 -119 -609 -131 -975 -14 -399
-41 -586 -108 -721 -61 -126 -124 -133 -328 -34 -309 149 -734 404 -1364 818
-326 214 -459 298 -720 456 -1673 1014 -4162 2243 -5435 2684 -205 71 -295 97
-710 209 -214 58 -597 161 -850 229 -1399 377 -1705 458 -2335 615 -867 217
-1440 342 -2159 470 -811 145 -1204 267 -1506 468 -172 114 -272 225 -350 387
-165 343 -123 832 139 1619 112 336 176 505 250 661 492 1028 1844 2640 2351
2801 51 16 74 17 116 2z m17669 -6543 c955 -131 1731 -725 2010 -1540 93 -273
140 -491 147 -686 8 -213 -18 -365 -107 -624 -255 -741 -588 -1244 -1054
-1592 -721 -540 -1638 -531 -2192 22 -110 109 -209 249 -244 341 -115 308 31
756 349 1075 131 130 241 204 418 280 179 77 294 143 361 206 53 50 55 53 49
93 -7 57 -45 109 -124 175 -104 85 -201 132 -1048 505 -115 51 -301 136 -411
190 -489 237 -684 381 -684 505 0 102 163 288 426 486 442 332 940 526 1491
579 124 12 477 3 613 -15z m-2806 -1849 c136 -35 300 -102 526 -217 222 -112
329 -180 404 -253 74 -73 101 -132 100 -226 0 -85 -6 -113 -79 -375 -91 -321
-141 -538 -165 -713 -23 -169 -135 -438 -216 -519 -37 -36 -50 -43 -83 -43
-54 0 -113 21 -256 89 -463 222 -1267 768 -1340 910 -10 22 -10 35 1 79 30
115 219 557 341 795 147 287 299 448 459 486 77 18 206 12 308 -13z m-1020
-2176 c41 -15 112 -86 170 -169 127 -181 338 -310 1291 -788 325 -163 667
-336 760 -386 495 -263 848 -499 1045 -697 95 -95 126 -139 233 -321 80 -138
156 -235 296 -384 155 -166 176 -205 175 -330 -1 -95 -13 -151 -70 -330 -111
-343 -267 -525 -509 -590 -205 -55 -529 -13 -925 121 -1016 343 -1813 910
-2286 1626 -352 532 -511 1145 -454 1753 20 208 70 383 128 449 44 49 96 66
146 46z m8280 -1510 c405 -14 566 -43 647 -117 53 -48 64 -87 64 -223 -1 -186
-43 -269 -165 -324 -99 -45 -182 -55 -575 -71 -203 -8 -523 -22 -710 -31 -556
-27 -1101 -14 -2015 46 -873 58 -1245 122 -1380 237 -94 81 -94 194 1 262 185
135 870 183 3109 220 680 11 722 12 1024 1z m-2257 -2227 c-3 -434 -11 -853
-16 -933 -26 -358 -62 -632 -121 -915 -100 -480 -227 -885 -600 -1910 -580
-1595 -763 -2121 -835 -2400 -29 -109 -38 -167 -42 -261 -5 -115 -4 -125 20
-177 29 -64 237 -292 330 -362 182 -138 450 -193 1102 -225 625 -31 3756 -38
4665 -10 921 28 1306 73 1515 177 136 68 225 234 225 421 0 306 -199 689 -654
1256 -243 303 -520 613 -1099 1233 -860 921 -1086 1172 -1463 1618 -406 481
-584 746 -822 1220 -433 867 -640 1742 -466 1973 69 90 201 82 287 -18 52 -61
107 -179 240 -515 167 -422 296 -701 464 -1004 417 -755 953 -1466 1725 -2292
89 -96 283 -303 429 -459 1444 -1546 2073 -2352 2269 -2907 111 -315 88 -563
-74 -808 -73 -111 -281 -321 -385 -389 -247 -164 -619 -215 -1801 -247 -583
-16 -5773 -23 -6985 -10 -2330 25 -2747 69 -3202 337 -164 96 -263 172 -378
288 -128 130 -188 224 -235 364 -98 295 -9 638 278 1067 241 361 459 607 1342
1520 773 799 1059 1113 1405 1545 414 517 701 957 938 1436 227 461 346 823
442 1350 71 392 105 498 192 594 98 109 247 150 683 185 459 37 528 42 579 44
l54 1 -6 -787z"/>
<path d="M22133 44727 c-46 -26 -83 -98 -83 -163 0 -44 35 -84 105 -118 86
-42 171 -56 340 -56 158 0 218 9 243 34 24 24 -4 56 -115 129 -232 154 -412
218 -490 174z"/>
<path d="M23590 44374 c-105 -21 -170 -67 -170 -123 0 -37 48 -102 107 -145
163 -119 449 -117 530 3 69 102 18 193 -137 242 -64 21 -268 35 -330 23z"/>
<path d="M24916 44189 c-203 -22 -254 -117 -125 -233 81 -74 207 -114 384
-123 94 -4 134 -2 185 11 101 25 150 73 136 130 -10 42 -84 115 -148 147 -109
55 -291 84 -432 68z"/>
<path d="M20265 44164 c-175 -28 -237 -88 -256 -247 -19 -168 20 -336 98 -409
57 -54 122 -62 199 -23 57 28 92 62 161 155 56 75 118 112 228 135 92 19 251
19 373 -1 142 -23 264 -15 339 22 96 48 107 105 35 173 -91 86 -320 152 -627
181 -122 12 -503 21 -550 14z"/>
<path d="M26402 43999 c-72 -12 -148 -46 -172 -77 -76 -96 80 -226 322 -268
106 -19 252 -14 333 10 111 34 186 109 171 172 -18 72 -123 133 -270 159 -96
16 -296 18 -384 4z"/>
<path d="M38646 43994 c-185 -34 -293 -125 -256 -215 19 -45 77 -87 155 -112
91 -29 294 -31 395 -4 93 25 189 72 233 115 32 31 37 42 37 83 0 65 -25 93
-108 120 -89 29 -337 36 -456 13z"/>
<path d="M28126 43909 c-96 -24 -195 -94 -222 -156 -41 -95 20 -210 141 -265
110 -50 248 -21 350 73 65 60 88 109 83 175 -9 105 -101 175 -238 180 -41 2
-92 -1 -114 -7z"/>
<path d="M22310 43819 c-221 -28 -327 -163 -213 -270 64 -59 137 -81 285 -87
255 -9 398 58 398 188 0 81 -102 147 -264 169 -86 12 -112 12 -206 0z"/>
<path d="M37278 43820 c-180 -32 -255 -189 -139 -293 58 -52 124 -70 240 -65
126 5 184 31 219 98 33 64 28 148 -13 190 -54 56 -199 89 -307 70z"/>
<path d="M29600 43769 c-139 -15 -250 -111 -250 -216 1 -51 31 -115 66 -140
74 -52 208 -62 330 -25 193 59 241 191 112 308 -68 61 -153 85 -258 73z"/>
<path d="M35910 43769 c-183 -20 -292 -160 -231 -295 33 -73 109 -108 231
-108 135 1 277 61 315 133 24 48 19 102 -14 148 -70 96 -170 137 -301 122z"/>
<path d="M23900 43629 c-81 -14 -173 -61 -229 -118 -85 -84 -82 -138 10 -184
84 -42 208 -60 359 -54 132 6 229 26 270 56 29 21 47 91 36 137 -17 65 -145
144 -266 163 -75 12 -103 12 -180 0z"/>
<path d="M31245 43631 c-121 -20 -210 -58 -259 -110 -26 -27 -29 -38 -28 -87
5 -195 183 -201 492 -16 62 37 135 88 163 114 57 53 55 69 -12 88 -48 14 -292
21 -356 11z"/>
<path d="M32855 43627 c-93 -25 -155 -73 -155 -121 0 -83 191 -236 295 -236
62 0 173 59 229 121 93 103 80 183 -34 225 -60 22 -267 28 -335 11z"/>
<path d="M34334 43626 c-76 -18 -156 -57 -183 -92 -27 -34 -35 -82 -22 -130
21 -77 95 -122 215 -131 204 -15 426 109 426 238 0 40 -51 92 -105 109 -61 19
-260 22 -331 6z"/>
<path d="M25420 43439 c-144 -28 -237 -111 -216 -193 24 -97 163 -156 366
-156 225 0 370 71 370 180 0 75 -72 134 -201 165 -70 16 -245 19 -319 4z"/>
<path d="M20762 43259 c-124 -16 -270 -109 -302 -194 -19 -49 17 -95 99 -126
157 -61 617 -12 658 70 25 52 -43 145 -146 199 -92 49 -194 66 -309 51z"/>
<path d="M26850 43263 c-219 -20 -361 -99 -346 -193 11 -75 112 -129 285 -155
172 -26 379 -12 504 35 66 25 122 74 133 114 10 40 -17 90 -64 120 -99 62
-323 97 -512 79z"/>
<path d="M38065 43150 c-183 -39 -301 -107 -326 -190 -15 -51 -7 -79 38 -124
119 -121 372 -153 551 -69 104 49 172 148 172 252 0 47 -4 57 -33 86 -65 65
-221 83 -402 45z"/>
<path d="M28385 43065 c-130 -24 -217 -66 -278 -134 -47 -52 -55 -85 -30 -119
46 -64 173 -96 373 -94 270 1 460 76 460 180 0 52 -28 93 -88 125 -99 54 -280
71 -437 42z"/>
<path d="M30104 43020 c-108 -35 -194 -133 -194 -220 0 -49 29 -106 84 -167
118 -130 282 -139 411 -21 109 99 125 236 39 337 -69 80 -218 111 -340 71z"/>
<path d="M36641 43019 c-157 -21 -329 -98 -423 -189 -88 -86 -88 -145 0 -192
64 -34 119 -46 264 -58 315 -26 563 44 594 167 16 63 -41 151 -140 215 -87 56
-175 73 -295 57z"/>
<path d="M22385 42894 c-144 -21 -219 -51 -250 -98 -49 -75 86 -198 267 -241
220 -53 486 -10 548 90 83 135 -91 239 -415 250 -66 2 -133 1 -150 -1z"/>
<path d="M31665 42894 c-144 -21 -219 -51 -250 -98 -49 -75 86 -198 267 -241
220 -53 486 -10 548 90 60 98 -28 191 -220 230 -74 16 -289 27 -345 19z"/>
<path d="M33329 42890 c-145 -18 -267 -64 -308 -116 -26 -34 -27 -89 -2 -131
27 -43 125 -89 224 -104 90 -14 230 -7 325 16 132 31 249 109 272 181 21 64
-32 111 -155 140 -83 19 -263 26 -356 14z"/>
<path d="M34999 42890 c-145 -18 -267 -64 -308 -116 -27 -34 -27 -87 -1 -129
78 -126 447 -153 668 -48 71 33 138 94 152 139 21 64 -32 111 -155 140 -83 19
-263 26 -356 14z"/>
<path d="M23745 42696 c-111 -26 -172 -61 -200 -116 -42 -82 11 -149 157 -195
167 -53 438 -55 573 -4 187 70 96 233 -170 304 -85 22 -284 28 -360 11z"/>
<path d="M20010 42519 c-65 -11 -167 -57 -220 -99 -49 -39 -84 -109 -75 -150
16 -72 111 -110 280 -110 124 0 202 16 277 57 61 33 89 71 96 129 9 84 -62
150 -187 174 -62 12 -94 11 -171 -1z"/>
<path d="M25375 42519 c-221 -17 -355 -84 -355 -178 0 -46 19 -74 73 -105 76
-45 179 -67 337 -73 225 -8 402 30 476 103 28 28 34 42 34 76 0 35 -6 47 -38
77 -81 77 -298 118 -527 100z"/>
<path d="M27000 42334 c-154 -27 -239 -62 -288 -119 -59 -66 -38 -163 58 -263
61 -64 112 -77 254 -69 220 14 503 129 566 233 38 61 24 109 -44 149 -78 46
-184 66 -361 70 -88 2 -171 2 -185 -1z"/>
<path d="M21381 42268 c-171 -24 -371 -125 -371 -186 0 -9 24 -39 53 -66 141
-136 440 -241 615 -216 129 18 187 78 179 185 -11 149 -123 256 -297 284 -74
12 -90 12 -179 -1z"/>
<path d="M37669 42261 c-154 -42 -287 -132 -311 -212 -25 -86 36 -166 163
-213 141 -52 289 -58 401 -16 69 26 149 95 177 153 56 115 -7 247 -138 292
-61 21 -208 19 -292 -4z"/>
<path d="M28525 42150 c-228 -19 -321 -89 -252 -191 73 -109 283 -178 507
-166 161 8 247 42 298 117 74 109 -73 216 -318 235 -41 3 -91 7 -110 9 -19 1
-75 0 -125 -4z"/>
<path d="M30161 42150 c-124 -13 -213 -43 -260 -88 -89 -85 -69 -202 57 -334
73 -77 136 -118 180 -118 49 0 129 23 266 75 255 97 346 170 346 279 0 82 -78
140 -229 171 -89 19 -258 25 -360 15z"/>
<path d="M36165 42135 c-227 -50 -370 -190 -286 -279 38 -40 104 -58 236 -63
272 -11 515 102 515 238 0 47 -31 75 -110 100 -74 23 -260 25 -355 4z"/>
<path d="M34740 42091 c-71 -22 -148 -80 -176 -133 -18 -34 -18 -109 0 -151
52 -122 259 -151 443 -61 113 54 146 121 103 208 -25 54 -66 90 -135 122 -40
19 -66 24 -130 23 -44 0 -91 -4 -105 -8z"/>
<path d="M31760 41960 c-105 -18 -170 -65 -170 -124 0 -67 116 -183 222 -221
58 -20 118 -16 176 14 136 70 212 186 172 262 -33 61 -237 97 -400 69z"/>
<path d="M22625 41945 c-132 -28 -205 -84 -205 -155 0 -105 160 -175 425 -187
207 -9 386 37 415 107 33 80 -89 185 -268 231 -89 23 -273 25 -367 4z"/>
<path d="M33390 41945 c-85 -23 -162 -66 -188 -105 -20 -29 -23 -43 -18 -83 7
-64 24 -97 65 -124 40 -27 83 -29 165 -8 101 27 314 143 424 232 31 25 42 41
40 57 -4 26 -38 31 -273 40 -127 5 -171 3 -215 -9z"/>
<path d="M24280 41763 c-83 -23 -156 -66 -175 -103 -73 -141 119 -241 460
-241 266 1 413 69 362 168 -37 70 -114 122 -242 163 -99 31 -312 38 -405 13z"/>
<path d="M19860 41587 c-81 -19 -119 -43 -137 -84 -13 -32 -13 -40 2 -79 44
-116 227 -202 405 -191 154 9 240 72 240 174 0 72 -60 130 -170 164 -83 26
-262 34 -340 16z"/>
<path d="M25905 41546 c-82 -19 -224 -81 -264 -114 -41 -34 -44 -72 -10 -109
40 -43 165 -120 232 -142 234 -78 500 -18 537 121 10 36 8 46 -15 95 -31 62
-79 102 -164 134 -72 27 -230 35 -316 15z"/>
<path d="M21313 41396 c-118 -29 -193 -92 -193 -162 0 -45 54 -105 121 -134
203 -87 622 -71 699 27 75 96 -58 219 -290 269 -80 17 -267 17 -337 0z"/>
<path d="M27441 41395 c-126 -36 -191 -94 -191 -174 0 -111 203 -195 425 -176
190 17 305 88 305 189 0 32 -7 46 -42 81 -69 68 -135 88 -303 92 -102 2 -154
-1 -194 -12z"/>
<path d="M37105 41313 c-140 -18 -277 -96 -329 -186 -24 -41 -43 -123 -37
-162 9 -60 74 -87 206 -87 261 1 498 90 545 202 25 60 -28 152 -111 196 -63
32 -184 49 -274 37z"/>
<path d="M29184 41219 c-249 -30 -355 -189 -195 -291 68 -42 133 -59 256 -65
127 -6 228 11 313 53 124 61 125 191 1 255 -86 43 -245 64 -375 48z"/>
<path d="M33960 41220 c-106 -13 -188 -49 -257 -113 -79 -73 -94 -133 -45
-180 50 -48 103 -61 257 -61 175 -1 262 22 332 89 39 38 43 46 43 90 0 57 -26
105 -73 134 -59 36 -164 53 -257 41z"/>
<path d="M35500 41221 c-240 -34 -343 -160 -232 -283 123 -136 478 -82 592 90
39 59 39 96 1 132 -54 49 -230 79 -361 61z"/>
<path d="M30622 41150 c-184 -49 -322 -156 -322 -248 0 -108 93 -171 304 -207
233 -39 461 -1 517 88 58 92 -47 298 -184 358 -73 32 -214 36 -315 9z"/>
<path d="M23024 41005 c-79 -14 -140 -39 -148 -61 -4 -10 6 -21 32 -32 51 -23
412 -24 482 -1 62 20 63 41 2 67 -95 41 -235 51 -368 27z"/>
<path d="M19633 40850 c-86 -18 -164 -77 -179 -136 -11 -42 5 -93 40 -127 66
-67 170 -97 331 -97 137 0 205 18 253 66 31 31 34 39 29 75 -15 110 -176 211
-357 223 -41 3 -94 1 -117 -4z"/>
<path d="M24490 40850 c-74 -9 -138 -39 -177 -83 -38 -43 -48 -82 -34 -134 13
-48 50 -85 116 -115 43 -20 65 -23 160 -22 80 0 120 5 146 17 147 66 172 211
50 289 -70 44 -156 60 -261 48z"/>
<path d="M20983 40660 c-144 -26 -233 -92 -233 -172 0 -35 6 -47 39 -78 99
-95 446 -139 656 -85 72 19 111 41 138 76 17 23 18 31 8 62 -23 70 -139 146
-276 182 -73 19 -261 27 -332 15z"/>
<path d="M25960 40652 c-174 -47 -241 -142 -171 -241 51 -71 224 -119 389
-108 169 11 287 70 313 157 22 74 -43 148 -166 186 -79 25 -285 28 -365 6z"/>
<path d="M27580 40481 c-205 -22 -288 -89 -235 -191 17 -34 84 -89 140 -118
105 -52 249 -68 348 -37 117 36 237 126 253 190 17 67 -49 123 -172 144 -86
15 -248 20 -334 12z"/>
<path d="M36730 40461 c-100 -22 -269 -78 -360 -119 -162 -73 -172 -136 -37
-223 89 -58 172 -81 292 -81 201 -1 370 76 429 194 46 91 24 188 -50 223 -56
27 -170 29 -274 6z"/>
<path d="M29227 40456 c-55 -20 -107 -59 -176 -131 -138 -144 -112 -193 111
-204 184 -9 359 2 399 25 65 38 41 105 -76 213 -106 96 -182 125 -258 97z"/>
<path d="M30613 40286 c-79 -18 -158 -61 -186 -100 -29 -40 -29 -105 -2 -142
51 -68 191 -114 345 -114 191 0 329 60 361 157 23 71 -49 153 -166 189 -71 22
-274 27 -352 10z"/>
<path d="M31975 40294 c-107 -21 -136 -29 -176 -50 -67 -33 -99 -75 -99 -129
0 -111 143 -180 375 -180 240 1 383 83 358 207 -13 68 -110 126 -245 148 -61
10 -173 12 -213 4z"/>
<path d="M33471 40288 c-138 -19 -247 -73 -276 -135 -15 -31 -15 -40 -3 -71
18 -49 88 -94 190 -123 73 -21 104 -23 263 -23 158 0 190 2 262 23 93 26 168
69 185 106 16 35 -5 100 -46 141 -36 36 -128 69 -236 84 -79 12 -252 11 -339
-2z"/>
<path d="M35080 40286 c-144 -31 -187 -102 -120 -193 60 -81 189 -145 321
-159 121 -12 248 32 290 99 28 47 26 118 -6 156 -73 86 -315 135 -485 97z"/>
<path d="M22695 40283 c-108 -15 -231 -65 -259 -105 -9 -12 -16 -39 -16 -59 0
-74 79 -129 235 -165 100 -24 360 -26 445 -5 84 21 145 55 159 90 35 83 -103
198 -285 236 -64 14 -208 18 -279 8z"/>
<path d="M19262 40090 c-126 -34 -182 -84 -182 -164 0 -105 191 -177 470 -177
203 -1 336 37 368 105 19 37 3 73 -55 127 -88 81 -209 119 -398 125 -107 3
-143 1 -203 -16z"/>
<path d="M24250 40099 c-122 -24 -260 -133 -260 -206 0 -48 14 -70 60 -93 74
-38 165 -52 320 -52 170 0 281 24 340 71 60 48 51 99 -31 176 -104 97 -265
136 -429 104z"/>
<path d="M25915 39875 c-121 -26 -285 -100 -311 -140 -12 -18 -11 -26 4 -55
17 -34 124 -119 151 -120 8 0 57 -28 109 -62 133 -86 178 -102 272 -95 136 10
221 60 269 161 24 49 27 125 7 164 -66 125 -294 192 -501 147z"/>
<path d="M20773 39846 c-157 -51 -186 -148 -74 -249 85 -77 207 -117 357 -117
111 0 182 16 277 64 74 37 82 44 85 72 3 26 -4 37 -37 65 -53 46 -177 116
-259 147 -55 20 -89 26 -187 28 -83 3 -133 0 -162 -10z"/>
<path d="M27390 39723 c-92 -32 -122 -70 -136 -170 -6 -46 -4 -52 26 -87 69
-78 148 -95 310 -66 129 23 180 62 194 151 12 77 -42 145 -140 175 -62 19
-197 17 -254 -3z"/>
<path d="M36241 39680 c-147 -31 -271 -176 -271 -317 0 -40 5 -51 38 -82 48
-45 111 -68 229 -83 240 -31 502 49 555 169 19 43 19 47 3 88 -43 113 -240
216 -438 229 -40 3 -92 1 -116 -4z"/>
<path d="M22385 39549 c-128 -11 -245 -50 -295 -98 -34 -32 -40 -44 -40 -79 0
-80 89 -136 267 -167 234 -41 530 3 619 91 28 28 34 42 34 76 0 92 -132 158
-353 178 -62 5 -119 9 -127 9 -8 -1 -56 -5 -105 -10z"/>
<path d="M28678 39550 c-235 -30 -305 -116 -185 -227 145 -134 493 -175 685
-82 72 35 102 74 102 131 0 100 -165 171 -426 182 -60 3 -139 1 -176 -4z"/>
<path d="M30362 39550 c-212 -27 -332 -92 -332 -179 0 -56 30 -95 102 -130
191 -93 539 -53 682 79 140 129 34 221 -270 234 -60 3 -142 1 -182 -4z"/>
<path d="M31988 39550 c-159 -25 -285 -78 -359 -150 -79 -76 -84 -156 -16
-246 66 -87 150 -124 280 -124 154 0 307 60 407 160 68 67 100 131 100 201 0
46 -4 55 -38 89 -24 25 -56 44 -92 54 -67 21 -204 28 -282 16z"/>
<path d="M34965 39549 c-162 -13 -294 -66 -366 -147 -117 -133 50 -223 389
-209 213 8 357 55 403 130 23 39 24 59 3 102 -42 90 -217 140 -429 124z"/>
<path d="M33360 39534 c-182 -39 -279 -121 -296 -248 -5 -35 -1 -56 19 -100
36 -78 66 -91 212 -89 174 2 382 65 519 157 167 112 135 231 -76 281 -80 19
-290 18 -378 -1z"/>
<path d="M23900 39360 c-105 -19 -207 -79 -260 -151 -48 -67 -35 -115 40 -154
138 -71 550 -66 637 9 39 33 44 117 11 166 -27 40 -112 94 -180 115 -61 18
-191 26 -248 15z"/>
<path d="M19550 39180 c-186 -19 -255 -94 -181 -197 78 -107 233 -170 396
-160 86 5 142 26 182 69 43 46 56 124 29 176 -39 76 -246 129 -426 112z"/>
<path d="M21104 38986 c-136 -33 -201 -128 -156 -228 36 -82 118 -120 257
-121 113 -1 186 25 239 83 41 45 51 76 42 125 -22 116 -205 184 -382 141z"/>
<path d="M25633 38990 c-86 -16 -166 -51 -205 -90 -34 -33 -38 -43 -38 -87 0
-150 213 -224 434 -151 118 39 226 135 226 201 0 39 -62 101 -115 117 -53 15
-237 21 -302 10z"/>
<path d="M27235 38986 c-116 -26 -205 -78 -256 -148 -86 -120 18 -204 251
-201 244 3 380 69 380 183 0 63 -31 107 -100 143 -68 34 -183 44 -275 23z"/>
<path d="M35947 38809 c-259 -23 -414 -148 -321 -259 58 -68 172 -103 333
-102 131 0 234 21 326 66 142 70 188 146 130 215 -37 43 -117 69 -248 81 -62
5 -116 9 -122 9 -5 -1 -50 -5 -98 -10z"/>
<path d="M28419 38796 c-101 -22 -143 -68 -137 -154 3 -43 7 -49 53 -84 101
-76 260 -114 442 -105 162 8 250 42 301 117 63 93 -26 180 -223 221 -105 22
-345 25 -436 5z"/>
<path d="M30115 38804 c-160 -24 -282 -70 -332 -127 -78 -89 -77 -213 3 -293
82 -83 223 -96 394 -36 107 38 185 58 316 82 152 28 180 37 219 71 63 56 71
151 17 201 -74 69 -193 99 -417 103 -93 2 -183 1 -200 -1z"/>
<path d="M22700 38777 c-86 -31 -187 -85 -300 -160 -148 -99 -161 -134 -59
-156 73 -16 311 -13 392 4 89 19 171 57 208 96 24 26 29 40 29 80 0 145 -101
195 -270 136z"/>
<path d="M34428 38770 c-82 -25 -128 -97 -128 -204 0 -111 50 -180 152 -211
144 -42 359 12 451 114 63 70 46 145 -50 215 -67 49 -142 74 -253 86 -110 11
-135 11 -172 0z"/>
<path d="M31635 38706 c-112 -32 -235 -104 -235 -138 0 -43 97 -126 204 -173
152 -67 336 -43 381 51 42 89 4 203 -82 245 -59 29 -191 36 -268 15z"/>
<path d="M32983 38570 c-91 -24 -122 -40 -162 -85 -62 -71 -32 -160 71 -208
81 -37 151 -50 272 -49 165 1 276 36 304 96 17 35 18 127 2 166 -35 85 -302
129 -487 80z"/>
<path d="M19653 38425 c-75 -21 -125 -48 -161 -90 -28 -31 -32 -43 -32 -90 0
-46 5 -59 30 -88 49 -56 118 -80 230 -80 130 0 245 41 328 117 31 27 62 88 62
120 0 43 -52 91 -118 110 -73 20 -265 21 -339 1z"/>
<path d="M24155 38424 c-90 -17 -177 -53 -217 -91 -23 -22 -28 -36 -28 -74 0
-42 4 -50 39 -82 42 -38 126 -69 235 -88 91 -15 372 -6 445 15 86 24 161 65
182 100 31 51 25 84 -24 131 -47 45 -129 77 -242 95 -86 14 -297 11 -390 -6z"/>
<path d="M20945 38250 c-128 -20 -195 -81 -195 -178 0 -111 184 -192 409 -179
167 9 251 51 251 124 0 39 -43 107 -89 140 -98 73 -256 112 -376 93z"/>
<path d="M26003 38250 c-178 -32 -276 -128 -230 -225 38 -79 146 -124 318
-132 141 -7 240 12 319 60 70 42 98 92 81 147 -16 55 -76 105 -158 130 -78 24
-248 35 -330 20z"/>
<path d="M27494 38056 c-98 -23 -141 -49 -154 -95 -18 -66 16 -120 111 -181
160 -103 364 -98 529 12 62 41 110 105 110 147 0 35 -59 87 -121 106 -74 24
-387 31 -475 11z"/>
<path d="M29011 38059 c-212 -41 -323 -149 -267 -258 35 -67 152 -136 284
-167 90 -21 274 -14 352 14 176 62 270 148 270 246 0 74 -90 135 -240 162 -83
15 -330 17 -399 3z"/>
<path d="M35794 38055 c-151 -35 -282 -116 -299 -188 -23 -89 101 -157 285
-157 107 0 300 16 365 31 108 24 185 91 185 161 0 33 -7 47 -37 78 -63 62
-134 82 -298 86 -95 2 -160 -1 -201 -11z"/>
<path d="M22557 37956 c-94 -26 -137 -82 -137 -176 0 -104 56 -182 168 -233
38 -17 66 -21 147 -21 119 0 187 22 258 84 91 80 94 143 12 219 -108 99 -326
161 -448 127z"/>
<path d="M30727 37879 c-162 -18 -291 -82 -316 -154 -12 -36 -12 -45 3 -77 20
-42 70 -79 141 -104 71 -24 278 -31 370 -11 237 51 371 173 295 270 -53 67
-276 102 -493 76z"/>
<path d="M34303 37880 c-56 -11 -112 -41 -148 -80 -28 -29 -30 -37 -30 -104 0
-89 14 -119 73 -153 105 -62 275 7 364 146 57 91 25 167 -80 190 -60 12 -117
13 -179 1z"/>
<path d="M24165 37685 c-175 -33 -255 -88 -255 -178 0 -127 319 -209 635 -162
165 25 285 97 285 172 0 70 -114 142 -264 168 -107 18 -304 18 -401 0z"/>
<path d="M32835 37663 c-124 -15 -244 -55 -303 -99 -76 -59 -111 -198 -67
-273 37 -62 65 -76 171 -79 193 -8 430 62 582 171 86 62 107 141 52 196 -66
66 -268 105 -435 84z"/>
<path d="M26130 37507 c-118 -28 -180 -88 -180 -177 0 -113 103 -180 276 -180
147 0 252 62 269 158 23 137 -172 243 -365 199z"/>
<path d="M21072 37492 c-173 -62 -187 -236 -24 -312 67 -32 208 -39 286 -15
181 57 208 234 48 312 -76 37 -227 44 -310 15z"/>
<path d="M27634 37316 c-165 -38 -241 -129 -184 -221 25 -40 115 -89 206 -112
100 -25 384 -25 474 0 90 24 134 62 138 115 3 36 -2 47 -37 85 -45 49 -134 97
-226 122 -84 22 -293 29 -371 11z"/>
<path d="M35590 37304 c-65 -17 -126 -57 -157 -103 -49 -72 -18 -175 84 -283
75 -78 128 -103 220 -102 63 1 83 6 147 37 111 55 207 173 230 282 15 70 -96
153 -234 175 -91 14 -225 11 -290 -6z"/>
<path d="M29580 37259 c-120 -21 -196 -80 -221 -172 -15 -57 -4 -102 38 -148
99 -109 382 -86 497 42 29 32 36 47 36 82 0 65 -61 146 -138 183 -43 20 -138
26 -212 13z"/>
<path d="M30948 37139 c-210 -18 -330 -97 -358 -235 -21 -101 12 -226 67 -255
38 -20 125 -15 218 14 44 13 134 41 199 61 76 23 156 40 219 46 109 11 150 29
188 82 29 40 36 106 15 147 -36 68 -157 125 -294 136 -136 11 -169 12 -254 4z"/>
<path d="M34318 37139 c-97 -14 -162 -57 -177 -118 -26 -99 -24 -116 10 -155
69 -79 150 -95 321 -62 125 24 171 59 183 140 20 133 -136 223 -337 195z"/>
<path d="M22695 37126 c-132 -25 -195 -65 -195 -122 0 -50 80 -151 150 -187
49 -26 62 -28 125 -25 86 6 178 43 324 131 184 111 222 166 136 196 -58 20
-446 25 -540 7z"/>
<path d="M24249 36951 c-142 -15 -154 -46 -46 -127 38 -28 112 -76 165 -106
285 -162 438 -155 459 20 11 93 -49 152 -197 191 -90 25 -261 34 -381 22z"/>
<path d="M26155 36756 c-141 -38 -205 -94 -205 -183 0 -161 284 -223 504 -111
60 31 134 105 146 146 15 54 -12 100 -75 132 -45 22 -64 25 -185 27 -88 2
-152 -2 -185 -11z"/>
<path d="M21253 36745 c-54 -16 -128 -71 -194 -143 -96 -105 -98 -151 -6 -176
114 -32 452 -28 524 6 61 29 38 105 -61 203 -105 102 -182 135 -263 110z"/>
<path d="M29500 36580 c-152 -21 -286 -107 -321 -208 -33 -95 110 -160 326
-149 169 9 281 57 304 130 25 81 24 112 -5 146 -36 44 -90 69 -171 81 -37 5
-70 9 -73 8 -3 0 -30 -4 -60 -8z"/>
<path d="M31473 36579 c-120 -22 -263 -157 -263 -247 0 -109 222 -150 378 -71
55 28 70 42 90 80 19 38 22 55 17 93 -17 110 -104 167 -222 145z"/>
<path d="M35645 36575 c-163 -31 -296 -109 -339 -199 -18 -39 -21 -112 -6
-151 15 -40 125 -150 171 -170 34 -16 48 -17 98 -8 78 15 341 115 408 155 104
63 163 139 163 209 0 131 -243 212 -495 164z"/>
<path d="M34200 36531 c-100 -31 -179 -103 -201 -184 -8 -30 -6 -51 6 -94 14
-47 29 -69 83 -123 76 -75 112 -90 214 -90 82 0 150 33 212 101 70 78 93 170
60 247 -22 54 -61 91 -129 123 -51 25 -71 29 -140 28 -44 0 -91 -4 -105 -8z"/>
<path d="M22852 36505 c-80 -37 -192 -150 -192 -194 0 -24 48 -52 119 -68 62
-15 119 -17 316 -16 244 1 348 11 374 38 13 13 12 18 -9 40 -31 32 -154 112
-245 158 -146 73 -266 87 -363 42z"/>
<path d="M32768 36485 c-143 -36 -238 -123 -238 -218 0 -47 44 -130 87 -163
115 -88 263 -84 391 10 156 114 148 286 -16 357 -59 26 -154 32 -224 14z"/>
<path d="M24577 36300 c-146 -37 -263 -167 -275 -307 -4 -49 -2 -55 29 -86 44
-44 100 -53 200 -32 145 30 274 118 300 205 23 76 -18 167 -92 205 -35 19
-116 26 -162 15z"/>
<path d="M25858 36189 c-45 -7 -67 -24 -85 -66 -21 -52 -17 -116 11 -146 63
-68 202 -107 416 -114 213 -8 437 19 428 50 -6 18 -104 68 -263 136 -257 110
-420 155 -507 140z"/>
<path d="M30955 35851 c-89 -40 -167 -165 -151 -243 17 -86 78 -120 223 -126
124 -5 187 12 233 64 95 109 -45 324 -212 324 -30 0 -71 -9 -93 -19z"/>
<path d="M22715 35844 c-124 -16 -198 -45 -252 -97 -83 -78 -37 -183 104 -238
80 -31 297 -39 393 -14 249 64 263 251 25 324 -60 19 -212 33 -270 25z"/>
<path d="M32763 35839 c-57 -13 -160 -84 -200 -137 -65 -85 -65 -148 0 -196
23 -17 46 -22 127 -24 116 -4 182 13 236 61 47 40 64 77 64 133 0 117 -104
191 -227 163z"/>
<path d="M35573 35840 c-153 -16 -260 -56 -312 -116 -79 -89 -2 -197 167 -233
78 -16 261 -14 345 5 134 30 247 96 283 165 20 40 18 63 -11 98 -59 70 -256
103 -472 81z"/>
<path d="M29115 35827 c-128 -43 -157 -100 -96 -184 77 -107 228 -169 392
-161 148 7 219 62 219 168 0 128 -91 178 -340 186 -96 3 -147 0 -175 -9z"/>
<path d="M34125 35826 c-149 -39 -220 -110 -195 -198 12 -41 36 -65 92 -94 71
-36 161 -54 273 -54 148 0 286 40 338 98 48 53 38 134 -23 184 -66 53 -139 71
-295 74 -92 2 -157 -1 -190 -10z"/>
<path d="M24190 35605 c-144 -41 -237 -152 -215 -259 16 -75 113 -188 191
-221 152 -66 356 48 394 218 18 77 1 130 -59 188 -77 75 -202 104 -311 74z"/>
<path d="M25672 35350 c-124 -33 -222 -91 -222 -133 0 -23 40 -62 100 -99 25
-16 77 -48 115 -73 39 -24 100 -57 137 -71 60 -24 76 -26 144 -21 166 12 274
106 274 238 0 71 -81 133 -212 164 -89 21 -246 18 -336 -5z"/>
<path d="M27440 35279 c-158 -20 -331 -162 -299 -246 12 -31 74 -69 144 -88
84 -23 295 -31 392 -15 212 34 275 108 181 215 -51 57 -98 88 -175 113 -72 24
-159 31 -243 21z"/>
<path d="M28969 35099 c-225 -15 -364 -77 -345 -154 19 -75 158 -163 299 -190
102 -19 258 -19 355 1 134 27 252 97 286 168 15 32 15 38 2 65 -42 81 -306
129 -597 110z"/>
<path d="M30466 35084 c-95 -17 -184 -55 -222 -95 -22 -23 -29 -40 -29 -70 0
-35 7 -47 41 -78 73 -69 209 -101 425 -102 277 0 459 73 459 185 0 22 -12 40
-43 71 -48 45 -129 77 -247 95 -91 14 -290 11 -384 -6z"/>
<path d="M35225 35081 c-79 -23 -117 -44 -148 -81 -53 -63 -48 -120 17 -177
52 -46 114 -69 221 -84 220 -30 434 45 460 161 16 74 -71 156 -194 184 -95 22
-277 20 -356 -3z"/>
<path d="M32312 35069 c-199 -25 -363 -140 -362 -256 1 -40 34 -109 67 -138
39 -34 136 -80 213 -101 87 -24 228 -24 295 0 145 53 233 175 205 285 -37 152
-205 236 -418 210z"/>
<path d="M33825 35035 c-177 -33 -340 -134 -365 -225 -17 -62 11 -124 74 -165
193 -129 488 -118 617 22 51 55 69 98 69 163 0 111 -72 185 -205 209 -72 13
-101 13 -190 -4z"/>
<path d="M22490 34911 c-107 -20 -180 -71 -180 -126 0 -90 180 -235 290 -235
118 0 290 140 290 236 0 44 -39 88 -98 109 -54 19 -234 28 -302 16z"/>
<path d="M24169 34715 c-106 -20 -186 -52 -228 -90 -29 -27 -36 -40 -36 -72 0
-56 25 -87 97 -122 93 -45 199 -63 363 -63 281 0 465 73 465 184 0 59 -83 119
-210 152 -91 24 -350 30 -451 11z"/>
<path d="M25745 34539 c-223 -17 -355 -84 -355 -179 0 -112 213 -189 490 -177
200 9 344 48 395 109 19 23 25 41 25 78 0 44 -4 52 -37 79 -84 70 -301 107
-518 90z"/>
<path d="M27328 34345 c-111 -23 -174 -58 -191 -106 -9 -26 27 -91 71 -131 86
-77 182 -110 323 -109 141 0 246 44 327 136 79 89 51 152 -86 196 -87 28 -341
36 -444 14z"/>
<path d="M28949 34319 c-277 -40 -470 -239 -387 -399 18 -36 35 -51 81 -74 52
-26 68 -29 146 -28 154 1 326 60 483 164 93 63 128 106 128 158 0 68 -136 158
-270 179 -73 12 -101 12 -181 0z"/>
<path d="M30563 34170 c-215 -23 -343 -94 -343 -192 0 -36 6 -47 43 -83 62
-59 124 -77 285 -83 150 -5 244 11 347 58 96 43 165 114 165 169 0 33 -48 79
-104 100 -53 20 -213 42 -283 40 -21 -1 -71 -5 -110 -9z"/>
<path d="M33445 34169 c-210 -32 -314 -145 -231 -253 57 -75 184 -111 372
-104 151 6 223 28 288 89 37 34 41 42 41 88 0 43 -5 55 -34 85 -19 19 -49 42
-66 51 -85 40 -261 61 -370 44z"/>
<path d="M32075 34154 c-105 -23 -197 -69 -250 -125 -93 -100 -38 -177 149
-210 106 -18 362 -6 456 21 85 24 152 60 175 92 22 32 19 100 -6 132 -30 38
-95 73 -169 90 -82 20 -261 19 -355 0z"/>
<path d="M34945 34156 c-148 -29 -251 -89 -275 -162 -23 -68 27 -131 128 -160
74 -22 221 -14 317 16 132 42 368 174 399 223 17 27 -4 50 -65 71 -71 25 -395
33 -504 12z"/>
<path d="M24453 33900 c-39 -10 -110 -37 -156 -59 -125 -60 -156 -111 -99
-162 57 -53 167 -122 269 -171 90 -43 118 -52 180 -56 96 -6 146 13 208 79 67
71 88 123 75 188 -5 28 -16 64 -25 80 -22 43 -83 90 -139 106 -70 21 -224 18
-313 -5z"/>
<path d="M25810 33687 c-118 -28 -186 -89 -161 -144 26 -57 189 -100 411 -110
221 -9 410 25 410 75 0 38 -39 66 -150 106 -204 74 -391 101 -510 73z"/>
<path d="M27352 33609 c-137 -20 -231 -80 -217 -138 31 -129 290 -234 535
-217 144 10 264 57 295 116 59 114 -43 198 -285 235 -104 16 -230 18 -328 4z"/>
<path d="M28942 33415 c-133 -29 -212 -91 -212 -166 0 -110 101 -179 263 -179
151 0 262 44 348 138 41 45 49 60 49 93 0 60 -45 96 -148 118 -71 15 -222 13
-300 -4z"/>
<path d="M30445 33424 c-109 -26 -187 -69 -211 -115 -23 -45 -18 -103 12 -139
90 -106 377 -141 569 -69 59 22 122 77 131 114 18 74 -36 144 -142 185 -50 20
-81 24 -199 26 -77 2 -149 1 -160 -2z"/>
<path d="M31898 33414 c-76 -18 -129 -46 -162 -84 -50 -60 -47 -112 12 -173
127 -131 541 -123 656 13 34 41 36 103 3 151 -27 40 -106 82 -184 98 -76 15
-255 13 -325 -5z"/>
<path d="M33526 33419 c-118 -28 -247 -128 -261 -202 -15 -78 48 -127 189
-148 95 -14 235 0 322 32 99 37 159 119 140 194 -11 43 -64 93 -122 115 -59
22 -193 26 -268 9z"/>
<path d="M34948 33420 c-238 -42 -346 -172 -229 -272 79 -68 238 -99 403 -79
233 28 388 120 388 229 0 40 -53 86 -122 108 -61 19 -359 29 -440 14z"/>
<path d="M25693 32940 c-186 -49 -259 -144 -204 -266 25 -55 59 -79 150 -108
147 -47 303 -63 435 -46 158 20 236 70 236 153 0 115 -126 233 -292 272 -87
20 -236 18 -325 -5z"/>
<path d="M27545 32870 c-216 -30 -395 -127 -426 -230 -32 -105 63 -237 199
-276 81 -24 225 -15 322 19 236 84 378 301 272 415 -56 60 -222 93 -367 72z"/>
<path d="M28980 32683 c-64 -11 -151 -47 -187 -78 -96 -82 -78 -192 40 -250
147 -72 398 -21 506 102 89 100 55 186 -85 219 -55 13 -215 17 -274 7z"/>
<path d="M30411 32675 c-108 -24 -201 -98 -201 -160 0 -64 88 -132 215 -166
111 -31 398 -34 490 -6 109 34 156 81 141 142 -16 65 -135 144 -271 181 -85
22 -293 28 -374 9z"/>
<path d="M31805 32679 c-176 -26 -295 -96 -295 -174 0 -66 94 -129 241 -162
101 -22 347 -22 449 0 108 24 201 73 222 117 50 103 -61 188 -287 219 -88 13
-243 12 -330 0z"/>
<path d="M33425 32680 c-167 -27 -318 -112 -346 -197 -10 -31 -9 -39 8 -62 27
-35 66 -57 138 -76 210 -54 556 -10 655 84 35 33 40 44 40 81 0 62 -59 120
-155 149 -81 26 -245 35 -340 21z"/>
<path d="M34755 32675 c-104 -19 -182 -52 -225 -95 -65 -65 -58 -129 18 -185
74 -53 145 -70 297 -69 198 1 345 46 433 134 97 97 45 181 -133 215 -93 18
-294 18 -390 0z"/>
<path d="M26625 31939 c-181 -27 -290 -90 -302 -175 -10 -81 79 -151 222 -175
87 -15 257 -7 345 16 259 67 357 236 177 303 -104 39 -294 52 -442 31z"/>
<path d="M28255 31940 c-101 -11 -174 -39 -222 -85 -38 -37 -43 -47 -43 -87 0
-36 6 -51 28 -73 34 -35 107 -69 197 -92 90 -22 372 -25 455 -4 148 37 193 98
136 182 -52 77 -197 140 -364 159 -94 11 -98 11 -187 0z"/>
<path d="M29745 31750 c-184 -33 -242 -110 -155 -204 53 -57 138 -101 246
-127 123 -29 329 -24 419 11 67 26 130 82 141 125 17 70 -62 139 -201 176 -90
24 -360 35 -450 19z"/>
<path d="M31206 31744 c-182 -33 -281 -116 -240 -200 28 -56 128 -100 296
-130 117 -21 393 -24 498 -5 144 26 230 73 230 127 0 30 -60 97 -114 129 -141
81 -453 118 -670 79z"/>
<path d="M33140 31755 c-8 -2 -49 -9 -90 -15 -194 -32 -340 -120 -340 -205 0
-90 160 -138 455 -138 298 0 515 56 561 145 47 90 -67 176 -276 208 -58 9
-272 12 -310 5z"/>
<path d="M34578 31750 c-172 -31 -278 -103 -278 -189 0 -51 69 -114 153 -140
272 -84 687 38 687 203 0 40 -54 90 -121 111 -62 20 -359 30 -441 15z"/>
<path d="M26295 31200 c-238 -18 -332 -97 -238 -201 47 -52 131 -94 252 -126
86 -23 116 -26 286 -27 161 -1 200 2 254 18 176 53 172 164 -8 256 -64 32
-221 69 -320 76 -47 3 -97 6 -111 8 -14 1 -65 -1 -115 -4z"/>
<path d="M27687 31140 c-118 -30 -187 -108 -187 -210 0 -112 94 -208 249 -254
67 -20 217 -21 287 -2 116 31 217 111 230 184 24 129 -207 277 -451 287 -49 3
-107 0 -128 -5z"/>
<path d="M29356 31005 c-147 -28 -241 -86 -252 -156 -11 -72 60 -132 202 -171
66 -18 107 -21 254 -22 191 0 268 12 359 58 102 52 132 134 70 196 -40 39 -70
54 -160 80 -99 29 -357 37 -473 15z"/>
<path d="M30980 31005 c-181 -36 -315 -129 -312 -218 2 -82 145 -136 362 -136
238 -1 417 58 463 152 43 86 -36 170 -192 203 -81 17 -234 17 -321 -1z"/>
<path d="M32677 31010 c-77 -14 -146 -42 -185 -76 -30 -26 -35 -36 -34 -69 2
-57 47 -124 102 -152 76 -39 180 -56 345 -57 162 -1 240 11 315 49 83 42 89
94 20 169 -46 49 -136 96 -230 120 -77 20 -265 29 -333 16z"/>
<path d="M34212 31010 c-97 -14 -189 -50 -237 -92 -39 -34 -45 -45 -45 -78 0
-72 78 -132 217 -167 106 -27 391 -23 497 5 179 49 251 140 176 225 -64 74
-233 118 -439 116 -64 -1 -140 -5 -169 -9z"/>
<path d="M25973 30635 c-78 -17 -158 -59 -186 -99 -29 -40 -29 -105 -2 -142
31 -40 113 -83 196 -100 89 -19 268 -14 344 10 117 36 189 118 166 189 -15 43
-64 91 -121 116 -92 40 -275 52 -397 26z"/>
<path d="M27830 30450 c-186 -40 -272 -159 -177 -248 118 -111 570 -143 747
-52 136 69 26 222 -205 285 -71 19 -299 28 -365 15z"/>
<path d="M29426 30270 c-151 -19 -256 -58 -302 -113 -52 -61 -14 -143 86 -186
103 -44 175 -55 360 -55 193 1 290 19 377 69 115 68 97 176 -38 234 -105 46
-335 70 -483 51z"/>
<path d="M31120 30274 c-231 -30 -398 -100 -445 -187 -36 -67 9 -122 126 -154
92 -25 371 -25 489 0 218 47 356 149 320 237 -27 66 -131 100 -320 105 -74 2
-151 1 -170 -1z"/>
<path d="M32585 30271 c-228 -27 -357 -109 -325 -206 33 -101 250 -165 515
-152 246 12 396 78 399 176 1 53 -27 89 -95 123 -101 50 -331 77 -494 59z"/>
<path d="M33978 30270 c-92 -16 -149 -42 -194 -84 -36 -35 -44 -49 -44 -78 0
-75 77 -137 220 -175 94 -26 410 -26 492 0 285 88 63 327 -317 342 -60 2 -131
0 -157 -5z"/>
<path d="M27765 29529 c-160 -17 -286 -73 -319 -143 -40 -85 26 -163 170 -200
80 -21 260 -21 356 -1 126 27 252 96 283 155 53 102 -26 166 -236 190 -95 11
-140 11 -254 -1z"/>
<path d="M28915 29515 c-147 -38 -216 -125 -170 -215 22 -42 138 -96 249 -115
102 -17 292 -20 386 -4 82 13 163 49 185 83 50 75 -72 192 -252 242 -83 23
-320 28 -398 9z"/>
<path d="M30500 29340 c-142 -23 -245 -74 -275 -135 -39 -83 41 -159 213 -202
95 -24 380 -24 475 0 136 34 227 99 227 163 0 60 -89 126 -215 160 -71 18
-341 28 -425 14z"/>
<path d="M32123 29339 c-129 -22 -225 -83 -238 -153 -22 -115 137 -199 380
-200 211 -1 355 72 355 179 0 55 -42 108 -110 137 -98 42 -261 58 -387 37z"/>
<path d="M33582 29335 c-82 -18 -161 -62 -189 -104 -93 -138 114 -267 398
-247 165 11 282 68 309 152 24 72 -47 153 -165 190 -71 22 -273 28 -353 9z"/>
<path d="M27060 28769 c-86 -22 -142 -56 -170 -102 -26 -42 -25 -76 3 -118 53
-78 139 -110 322 -116 143 -6 220 7 305 50 119 61 119 186 1 251 -106 57 -316
73 -461 35z"/>
<path d="M28970 28693 c-122 -8 -233 -43 -283 -91 -42 -40 -57 -75 -57 -134 0
-50 2 -54 58 -109 160 -155 475 -155 633 0 90 88 93 152 10 232 -35 34 -66 52
-112 67 -83 28 -170 40 -249 35z"/>
<path d="M30495 28596 c-109 -18 -191 -52 -239 -96 -73 -69 -50 -139 65 -197
93 -47 217 -66 394 -60 79 2 171 12 211 21 134 32 227 111 211 178 -15 60
-106 118 -226 144 -95 21 -319 26 -416 10z"/>
<path d="M33485 28599 c-127 -18 -218 -54 -267 -106 -64 -67 -38 -135 72 -190
165 -83 538 -85 706 -3 73 36 93 56 101 104 11 69 -30 118 -136 160 -99 39
-329 56 -476 35z"/>
<path d="M32117 28530 c-135 -48 -367 -197 -367 -235 0 -25 60 -37 229 -46
283 -16 513 3 561 46 39 35 19 87 -60 158 -75 68 -129 90 -225 94 -62 3 -93
-1 -138 -17z"/>
<path d="M27600 27954 c-83 -16 -224 -78 -260 -114 -32 -32 -24 -59 28 -109
149 -144 401 -184 510 -83 83 78 52 225 -60 280 -47 23 -161 37 -218 26z"/>
<path d="M28914 27855 c-128 -28 -263 -120 -286 -197 -10 -34 -9 -42 9 -66 54
-72 160 -95 403 -89 126 3 190 9 228 21 123 39 149 118 67 205 -54 58 -147
106 -242 126 -81 17 -100 17 -179 0z"/>
<path d="M30325 27859 c-212 -27 -396 -130 -425 -239 -23 -85 53 -205 158
-253 73 -33 228 -36 324 -7 200 60 348 202 348 332 0 63 -30 104 -95 134 -87
40 -176 50 -310 33z"/>
<path d="M33221 27780 c-169 -36 -294 -112 -322 -197 -9 -28 -8 -43 6 -79 79
-208 644 -263 849 -83 55 49 76 85 76 134 0 46 -20 84 -65 123 -84 74 -181
103 -360 108 -77 2 -160 -1 -184 -6z"/>
<path d="M31750 27669 c-150 -29 -199 -103 -130 -196 81 -111 283 -182 435
-154 129 24 195 83 195 174 0 44 -4 54 -37 87 -80 79 -298 121 -463 89z"/>
<path d="M29045 26929 c-239 -34 -368 -156 -293 -277 29 -47 124 -107 222
-139 68 -22 99 -26 196 -26 173 -1 307 44 407 136 55 51 73 84 73 138 0 87
-107 147 -299 169 -100 11 -221 11 -306 -1z"/>
<path d="M30385 26914 c-187 -41 -289 -134 -289 -264 0 -70 30 -131 76 -153
141 -65 513 17 695 153 124 94 108 192 -42 250 -52 20 -82 24 -215 26 -112 3
-174 -1 -225 -12z"/>
<path d="M31705 26917 c-236 -49 -358 -184 -264 -291 122 -140 609 -178 830
-65 56 28 89 73 89 120 0 92 -75 168 -215 215 -70 24 -98 27 -230 30 -93 2
-173 -2 -210 -9z"/>
<path d="M33087 26920 c-77 -13 -145 -42 -188 -78 -141 -121 -101 -331 80
-419 52 -26 64 -28 186 -28 177 0 230 16 306 93 62 64 85 122 77 195 -9 82
-67 165 -139 203 -72 37 -214 52 -322 34z"/>
<path d="M28361 26190 c-147 -31 -223 -129 -172 -224 24 -47 66 -78 142 -108
42 -17 83 -22 187 -26 146 -5 205 5 265 44 34 22 37 28 37 69 0 25 -6 60 -14
78 -15 37 -70 88 -124 116 -87 44 -237 68 -321 51z"/>
<path d="M29668 26186 c-84 -23 -158 -96 -184 -182 -28 -93 -13 -278 26 -326
36 -45 149 -25 377 63 74 29 116 53 151 84 60 54 76 90 70 154 -6 57 -34 100
-91 142 -80 58 -256 91 -349 65z"/>
<path d="M32302 26065 c-164 -37 -225 -134 -153 -246 36 -57 64 -82 126 -112
89 -44 177 -60 325 -60 204 0 351 39 436 117 38 34 47 49 47 75 0 83 -135 166
-348 213 -120 26 -347 33 -433 13z"/>
<path d="M31055 26000 c-137 -22 -246 -76 -270 -135 -58 -137 172 -238 505
-222 139 7 227 25 298 61 177 90 125 223 -111 282 -74 19 -336 27 -422 14z"/>
<path d="M30330 25264 c-116 -20 -152 -29 -198 -51 -98 -46 -131 -136 -79
-214 28 -43 111 -85 185 -95 204 -26 452 104 452 237 0 71 -84 113 -247 122
-48 3 -99 3 -113 1z"/>
<path d="M31960 25260 c-81 -14 -124 -29 -173 -60 -79 -50 -103 -111 -73 -184
67 -162 434 -152 591 15 74 79 70 152 -10 196 -68 37 -221 53 -335 33z"/>
<path d="M30835 24559 c-323 -30 -593 -110 -620 -184 -8 -23 -6 -30 14 -46 25
-21 97 -44 183 -60 108 -19 559 -22 868 -5 715 40 1007 69 1052 106 l22 17
-30 15 c-71 36 -439 111 -704 143 -160 20 -636 28 -785 14z"/>
<path d="M31204 23765 c-112 -24 -164 -63 -164 -122 0 -137 307 -258 570 -224
116 15 175 37 227 87 37 35 43 46 43 82 0 80 -90 143 -252 176 -95 20 -337 20
-424 1z"/>
<path d="M30993 23030 c-55 -11 -97 -34 -122 -66 -97 -123 157 -307 399 -291
151 10 230 75 230 187 0 76 -92 144 -225 169 -67 13 -220 13 -282 1z"/>
<path d="M14268 27766 c-117 -31 -198 -144 -198 -276 0 -49 4 -61 28 -85 105
-106 440 -127 604 -38 162 88 117 245 -99 349 -120 58 -239 76 -335 50z"/>
<path d="M13825 26919 c-70 -21 -99 -69 -98 -158 2 -140 79 -254 216 -321 57
-28 83 -34 150 -38 139 -7 279 33 321 90 27 37 26 110 -2 164 -83 162 -422
314 -587 263z"/>
<path d="M15310 26560 c-208 -26 -336 -110 -309 -203 5 -16 16 -38 25 -49 29
-31 134 -76 216 -93 99 -19 321 -20 422 0 194 37 295 130 238 220 -25 40 -119
89 -209 109 -90 20 -283 28 -383 16z"/>
<path d="M16765 26266 c-70 -24 -139 -57 -172 -82 -37 -28 -43 -65 -18 -101
22 -31 141 -107 210 -133 82 -32 224 -34 274 -5 60 35 76 67 76 148 0 88 -21
123 -92 158 -60 28 -214 37 -278 15z"/>
<path d="M13040 26181 c-48 -10 -60 -18 -60 -42 0 -39 69 -99 335 -293 204
-148 294 -190 405 -191 85 0 156 37 212 111 52 70 58 110 24 168 -57 98 -236
184 -476 231 -93 18 -382 29 -440 16z"/>
<path d="M14774 25806 c-106 -26 -208 -98 -244 -170 -20 -41 -20 -47 -6 -74
34 -65 176 -104 376 -104 205 0 342 38 377 105 13 26 12 32 -7 73 -67 138
-299 218 -496 170z"/>
<path d="M15995 25435 c-104 -23 -165 -58 -180 -104 -9 -28 26 -91 75 -135 86
-77 200 -112 345 -103 154 8 280 76 334 180 l24 48 -19 27 c-27 37 -116 79
-194 92 -90 14 -313 11 -385 -5z"/>
<path d="M17474 25260 c-82 -12 -148 -38 -192 -76 -108 -92 -61 -201 112 -261
40 -14 83 -18 201 -18 130 0 158 3 209 22 111 42 165 105 152 177 -22 117
-247 190 -482 156z"/>
<path d="M12922 25210 c-83 -22 -253 -92 -295 -122 -21 -15 -27 -27 -25 -46 4
-34 42 -56 212 -123 155 -61 298 -99 376 -99 72 0 179 32 220 66 25 22 30 33
30 70 0 113 -108 218 -267 259 -76 20 -162 18 -251 -5z"/>
<path d="M18975 25069 c-110 -18 -185 -69 -185 -125 0 -95 170 -211 336 -229
181 -20 424 113 424 232 0 57 -71 103 -190 122 -75 13 -312 13 -385 0z"/>
<path d="M14218 24880 c-50 -15 -109 -54 -128 -86 -13 -20 -20 -49 -20 -79 0
-43 4 -52 43 -90 65 -66 153 -90 327 -90 104 0 147 4 187 18 126 44 137 125
30 224 -55 51 -104 76 -184 97 -64 17 -209 20 -255 6z"/>
<path d="M15756 24600 c-86 -22 -136 -83 -136 -166 0 -171 136 -258 425 -271
211 -9 372 35 418 115 17 29 18 39 8 72 -36 119 -318 245 -571 255 -58 3 -122
0 -144 -5z"/>
<path d="M12219 24520 c-168 -29 -238 -165 -149 -288 35 -49 101 -96 183 -129
82 -34 246 -43 328 -20 142 42 167 167 58 292 -93 105 -280 170 -420 145z"/>
<path d="M17465 24334 c-129 -20 -232 -88 -242 -160 -5 -36 -1 -45 27 -78 40
-46 108 -81 197 -103 101 -25 396 -25 478 0 110 34 155 79 140 140 -17 65
-137 145 -270 182 -59 16 -271 28 -330 19z"/>
<path d="M19260 24104 c-143 -27 -438 -118 -498 -154 -38 -23 -42 -53 -9 -74
32 -22 233 -105 297 -124 83 -24 317 -23 389 2 98 34 191 142 191 222 0 89
-67 125 -235 130 -60 1 -121 0 -135 -2z"/>
<path d="M13797 24090 c-54 -14 -128 -54 -159 -87 -35 -36 -48 -73 -48 -131 1
-209 314 -332 586 -231 77 29 159 108 170 163 23 129 -195 273 -441 290 -39 3
-87 1 -108 -4z"/>
<path d="M20620 23959 c-63 -11 -155 -51 -188 -82 -90 -84 -60 -199 68 -254
55 -23 194 -28 267 -9 113 28 216 94 249 157 16 33 18 92 4 120 -34 62 -230
96 -400 68z"/>
<path d="M15154 23750 c-90 -13 -144 -53 -144 -109 0 -91 97 -196 265 -290
244 -135 370 -145 479 -36 96 96 99 160 11 243 -131 123 -431 217 -611 192z"/>
<path d="M16751 23400 c-87 -18 -141 -42 -166 -71 -48 -57 -23 -123 68 -184
224 -149 665 -131 741 30 40 84 -37 164 -199 210 -70 20 -373 30 -444 15z"/>
<path d="M13202 23380 c-40 -25 -62 -73 -62 -138 0 -84 61 -134 206 -173 121
-32 433 -29 480 6 28 20 6 56 -70 110 -242 172 -466 251 -554 195z"/>
<path d="M18570 23219 c-187 -15 -328 -58 -386 -115 -82 -83 -13 -170 176
-221 52 -15 102 -18 255 -17 171 1 200 4 288 27 259 69 355 199 202 275 -103
50 -308 70 -535 51z"/>
<path d="M20037 23025 c-226 -45 -291 -209 -117 -298 112 -57 307 -70 455 -32
156 41 223 135 162 226 -63 95 -298 144 -500 104z"/>
<path d="M21512 23025 c-74 -16 -139 -52 -176 -96 -20 -23 -26 -42 -26 -76 0
-42 4 -51 45 -89 55 -54 143 -83 270 -91 237 -15 427 74 412 191 -9 69 -54
112 -152 147 -78 28 -279 36 -373 14z"/>
<path d="M14744 22969 c-133 -17 -216 -77 -233 -166 -12 -61 -3 -97 39 -164
106 -163 237 -182 470 -64 99 50 204 120 235 156 56 68 18 117 -138 177 -147
57 -261 76 -373 61z"/>
<path d="M16266 22655 c-128 -33 -248 -125 -262 -203 -19 -102 101 -159 311
-149 132 6 225 33 279 80 33 28 39 40 43 82 6 69 -27 129 -91 169 -42 26 -59
30 -134 33 -53 1 -110 -3 -146 -12z"/>
<path d="M17600 22462 c-83 -22 -156 -65 -175 -102 -8 -16 -15 -47 -15 -70 0
-56 54 -109 141 -140 80 -28 277 -39 372 -20 121 23 206 79 223 145 17 66 -45
139 -150 176 -87 30 -303 37 -396 11z"/>
<path d="M19185 22289 c-118 -17 -188 -55 -209 -112 -12 -34 28 -102 86 -146
131 -99 286 -126 434 -76 117 39 199 99 229 165 19 41 19 43 0 79 -16 28 -33
41 -75 58 -101 39 -312 54 -465 32z"/>
<path d="M20815 22226 c-70 -23 -147 -61 -245 -121 -142 -89 -167 -120 -113
-144 44 -20 411 -34 556 -22 218 19 266 54 199 147 -40 55 -97 103 -156 130
-59 27 -172 32 -241 10z"/>
<path d="M22298 22080 c-67 -11 -144 -38 -158 -55 -18 -22 41 -52 117 -61 110
-11 363 0 406 19 22 9 37 22 35 29 -6 21 -89 57 -158 68 -74 11 -173 11 -242
0z"/>
<path d="M17970 21509 c-73 -19 -118 -47 -106 -67 16 -26 105 -37 291 -36 200
1 266 12 273 46 12 63 -290 101 -458 57z"/>
<path d="M27589 20426 c-118 -42 -173 -122 -155 -222 10 -51 66 -109 122 -124
139 -39 345 112 344 252 -1 52 -15 73 -63 93 -45 19 -197 19 -248 1z"/>
<path d="M27450 19509 c-65 -8 -82 -14 -133 -48 -48 -31 -67 -67 -67 -127 0
-42 5 -51 43 -89 76 -75 241 -114 407 -95 89 10 126 26 163 69 53 63 43 116
-32 184 -92 83 -241 125 -381 106z"/>
<path d="M27517 18581 c-119 -17 -197 -68 -197 -130 0 -55 101 -163 195 -207
31 -15 68 -24 98 -24 122 0 287 138 287 240 0 46 -39 86 -102 105 -59 17 -207
26 -281 16z"/>
<path d="M27055 14793 c-49 -1 -270 -7 -490 -13 -1612 -43 -2160 -96 -2283
-223 -17 -18 -35 -47 -38 -65 -6 -28 -2 -37 32 -70 63 -63 219 -112 517 -162
392 -66 649 -75 2137 -75 1245 0 1564 7 1814 40 209 27 240 45 303 172 48 98
55 172 21 223 -64 94 -263 146 -658 170 -142 8 -1086 11 -1355 3z"/>
<path d="M25935 13359 c-78 -24 -219 -40 -425 -49 -306 -12 -491 -50 -571
-117 -75 -63 -199 -384 -304 -783 -206 -789 -429 -1298 -840 -1916 -387 -582
-872 -1159 -1815 -2159 -678 -720 -1206 -1322 -1407 -1605 -133 -187 -241
-403 -294 -590 -29 -104 -37 -298 -15 -400 53 -247 249 -470 582 -658 356
-202 627 -260 1429 -307 863 -50 1589 -59 4225 -52 2067 5 2741 12 3980 37
1238 25 1799 50 1945 86 88 22 288 124 385 198 183 138 355 350 421 520 26 67
33 100 37 185 8 174 -33 338 -142 566 -238 497 -720 1108 -1881 2385 -1223
1344 -1648 1851 -2038 2425 -299 441 -473 767 -781 1460 -251 563 -338 705
-433 705 -43 0 -95 -36 -121 -83 -25 -47 -22 -237 7 -387 64 -331 204 -759
381 -1165 336 -770 772 -1336 2381 -3090 575 -627 1066 -1194 1291 -1490 119
-157 277 -423 352 -593 170 -382 162 -648 -23 -825 -108 -103 -306 -180 -531
-206 -330 -38 -1338 -55 -3285 -55 -1667 0 -2374 8 -2865 35 -236 12 -298 21
-415 60 -202 67 -347 157 -490 303 -154 157 -217 300 -195 441 34 212 287
1009 657 2065 634 1810 808 2431 887 3175 37 340 53 961 37 1420 -12 337 -24
427 -61 457 -25 20 -23 20 -65 7z"/>
</g>
</svg>
